<svg id="BunBuns" xmlns="http://www.w3.org/2000/svg" viewBox="0 0 729.34 291.43"><defs><style>.cls-1{fill:#81929b;}.cls-2{fill:#fa697c;}.cls-3{fill:#2e3e47;}.cls-4{fill:#52616b;}.cls-5{fill:#141b1e;}.cls-6{fill:#c3d1d8;}</style></defs><title>bunbuns</title><path id="Hill_Back" data-name="Hill Back" class="cls-1" d="M212,232c0-98.86,84.62-179,189-179s189,80.14,189,179H212Z" transform="translate(-30.74 -8.5)"/><path id="PinkBunBun" class="cls-2" d="M332.21,150.85c-.34-.3-.54-.76-.87-1.08-1.09-1.05-2.22-2-3.29-3.09-.51-.51-.89-1.14-1.36-1.69a11.84,11.84,0,0,0-1.11-1.13c-.61-.54-1.23-1.08-1.88-1.57s-1.19-.82-1.8-1.2c-.8-.5-1.6-1-2.41-1.44s-1.51-.83-2.3-1.18-1.7-.63-2.56-.95a2.58,2.58,0,0,1-.49-.17c-1.67-1-3.27-2.18-5-3.1-1.2-.64-1.82-1.79-2.77-2.63a1.38,1.38,0,0,1-.27-.94,22.58,22.58,0,0,0-1.46-6.75,7.94,7.94,0,0,0-.57-1.07c1.16-1,1.44-2.43,2-3.77a6.59,6.59,0,0,0,.42-1.35,13.59,13.59,0,0,0,.06-1.76c.59.06,1.24.17,1.9.18,1.34,0,2.7.07,3.78-1a1.86,1.86,0,0,1,.7-.36,3.29,3.29,0,0,0,2.27-2.93,3.19,3.19,0,0,0-1.92-3.22,8.4,8.4,0,0,0-7.34,0,3.15,3.15,0,0,0-1.75,2c-.06.21-.15.41-.2.54-1.93-.85-3.78-1.7-5.66-2.5-.82-.35-1.68-.6-2.53-.89-1.34-.44-2.68-.84-4-1.33-1.14-.43-2.21-1-3.36-1.43a35.76,35.76,0,0,0-3.58-1c-2-.48-4.09-.94-6.15-1.36-1.1-.22-2.24-.27-3.34-.49a63.32,63.32,0,0,1-7.69-1.74c-2-.68-4.07-1-6.07-1.64-1.41-.44-2.76-1-4.12-1.62-.74-.31-1.44-.7-2.16-1.06-.5-.25-.87-.86-1.57-.6,0,0-.08,0-.11-.05a23.57,23.57,0,0,0-3.69-2.67,1,1,0,0,1-.39-.58c.4.05.79.11,1.19.15s1,.1,1.52.15,1.16.18,1.75.2,1-.12,1.51-.06c1.91.24,3.8.58,5.71.8,1,.12,2,.07,3,.09.83,0,1.66.06,2.5.05,1.31,0,2.62-.07,3.94-.08.87,0,1.75.1,2.62.06a24.5,24.5,0,0,0,2.7-.3q2.76-.45,5.51-1c1.19-.23,2.37-.56,3.56-.78s2.14-.23,3.2-.43c1.41-.26,2.8-.59,4.2-.91.75-.17,1.49-.39,2.24-.57l5-1.25a1.62,1.62,0,0,0,1.36-1.49.55.55,0,0,1,.1-.22c.48-.66.45-.86-.2-1.34a7.09,7.09,0,0,0-2.79-1.48,4.78,4.78,0,0,1-1.41-.86l-.37-.14a5.7,5.7,0,0,1-.58-.06c-1.08-.28-2.15-.61-3.24-.84-1.54-.34-3.1-.63-4.66-.9a19.85,19.85,0,0,0-2.43-.27c-.94,0-1.88,0-2.83,0-1.33,0-2.66-.08-4,0-1.68,0-3.36.09-5,.25-1.49.14-3,.4-4.46.66-1.05.19-2.08.47-3.11.72-2.05.51-4.11,1-6.15,1.54-.64.16-1.24.47-1.86.67-1.35.45-2.72.81-4,1.31s-2.63,1.15-3.93,1.77c-1,.47-1.92,1-2.91,1.51a3.13,3.13,0,0,1-1.54.42c-.44,0-.85-.45-1.25-.73-1.76-1.26-3.55-2.42-5.89-2.08a2.38,2.38,0,0,1-.51-.09,4.65,4.65,0,0,0-3,.41c-.61.36-1.21.73-1.78,1.14-1.14.81-2.25,1.66-3.38,2.48a5.85,5.85,0,0,1-.81.52c-1,.48-2,.88-3,1.41a3.18,3.18,0,0,0-.6,4.87c1.6,1.37,3.3,2.62,5,3.88a27.73,27.73,0,0,0,6.17,3c1.19.5,2.39,1,3.57,1.51a.91.91,0,0,1,.46.62,2,2,0,0,1-1.2,1.77c-1,.27-2.07.53-3.11.77-.83.2-1.66.39-2.5.53-1.15.2-2.3.33-3.44.53s-2.55.47-3.82.72a12.78,12.78,0,0,1-1.33.31c-.75.06-1.5,0-2.24.09a19.84,19.84,0,0,1-4.15.14c-2.15-.14-4.32-.06-6.47,0-1,0-1.89.22-2.84.33-1.11.14-2.23.23-3.33.4s-2.11.44-3.18.56a4,4,0,0,0-2.29,1,3.94,3.94,0,0,0-1.11,2.28,2,2,0,0,0,2.15,2.31c1.09-.25,2.17-.56,3.26-.79a11.24,11.24,0,0,1,4.16-.53,15.21,15.21,0,0,0,3.09.15,37.36,37.36,0,0,1,5.29,0,16.24,16.24,0,0,0,1.84-.12c1.47-.07,2.95-.11,4.42-.21,1.25-.09,2.5-.28,3.75-.37s2.28,0,3.4-.18c1.29-.17,2.56-.48,3.84-.73.53-.11,1.06-.25,1.61-.34,1-.14,1.92-.28,2.89-.38s2.09-.19,3.14-.23c.13,0,.4.38.37.52a1.7,1.7,0,0,1-.48.74c-1.07,1-2.51,1-3.82,1.4-1.14.3-2.33.44-3.49.66-.82.15-1.63.33-2.45.46s-1.76.2-2.62.36-1.63.42-2.45.57-1.62.22-2.43.33-1.37.26-2.06.34c-1.07.12-2.16.17-3.23.29-.87.1-1.73.34-2.59.38a15.42,15.42,0,0,0-4.48.65c-1,.36-2.08.68-3.11,1s-1.94.7-2.89,1.1c-.48.2-.68,1.36-.25,1.65a5.73,5.73,0,0,0,2.08,1,22.65,22.65,0,0,0,3.5.08.6.6,0,0,0,.29-.14,2.49,2.49,0,0,1,2-.22s0,.08.07.15l-.46.4,1.08-.17c.66-.1,1.32-.26,2-.3,2.07-.12,4.14-.16,6.2-.3,1.56-.11,3.11-.26,4.65-.49,3.74-.57,7.47-1.16,11.2-1.81,2.25-.4,4.49-.89,6.71-1.43,1.74-.43,3.45-1,5.17-1.54.63-.18,1.27-.47,1.93,0,.09.06.25,0,.38,0,1.06-.11,2.12-.24,3.19-.32.77-.06,1.54,0,2.31-.08,1.26-.06,2.53-.17,3.79-.16a26.32,26.32,0,0,1,2.62.31c1.16.14,2.31.32,3.48.37s2.3.9,3.63.91a22.69,22.69,0,0,1,4.13.69q3.19.61,6.37,1.28a7.93,7.93,0,0,1,1.34.4,16,16,0,0,0,1.76.78,3.89,3.89,0,0,1,1.95,1.34c.2.23.41.54.67.62.85.25,1.07,1,1.39,1.63a22.31,22.31,0,0,0,1.43,2.69,15.43,15.43,0,0,0,1.8,2.08,27.51,27.51,0,0,1,2.46,2.49,13.72,13.72,0,0,0,2.85,2.33,9.11,9.11,0,0,0,.92.72c.85.52,1.7,1,2.57,1.49s2,1.05,3,1.52c1.53.7,3.06,1.38,4.61,2s3.36,1.29,5.05,1.91c1.9.69,3.81,1.35,5.72,2a5.54,5.54,0,0,1,1.39.59c.84.59,1.62,1.29,2.43,1.93.17.13.38.21.57.33.91.54,1.85,1.05,2.72,1.65,1.17.82,2.26,1.75,3.44,2.56a13.54,13.54,0,0,0,1.69.75c1,.48,1.27.43,1.86-.45l.14-.37A6.17,6.17,0,0,0,332.21,150.85Zm-92-55.66c-.53-.19-1.06-.41-1.59-.61-.5.85-1,1.72-1.39,2.61-.2.41-1.16-.18-1.36-.3s-1-.72-.77-1.15c.35-.73.74-1.43,1.14-2.13-.6-.25-1.19-.5-1.78-.78-.24-.11-1.14-.59-1-1,.08-.16.35-.17.5-.17a2.69,2.69,0,0,1,.88.25c.61.29,1.23.55,1.85.81.53-.89,1.1-1.76,1.72-2.6.27-.38,1.1.13,1.35.3s1,.78.77,1.15c-.5.69-1,1.41-1.41,2.13L240,94c.38.13,1.22.5,1.28,1S240.42,95.27,240.18,95.19ZM204,116c0-.1,0-.19-.07-.29l1.55-.37c0,.11.05.22.07.33Z" transform="translate(-30.74 -8.5)"/><path id="Hill_Right" data-name="Hill Right" class="cls-3" d="M760.07,299.93C737.61,214,657.28,150.39,561.62,150.39a207.52,207.52,0,0,0-141.53,55.06,209.41,209.41,0,0,1,51.77,94.48Z" transform="translate(-30.74 -8.5)"/><path id="Hill_Left" data-name="Hill Left" class="cls-4" d="M471.86,299.93a209.41,209.41,0,0,0-51.77-94.48C378.66,161.61,318.39,134,251.3,134,143.76,134,53.75,204.9,30.74,299.93Z" transform="translate(-30.74 -8.5)"/><ellipse id="Oval" class="cls-1" cx="73.26" cy="208" rx="12" ry="5.5"/><path id="Tree" class="cls-5" d="M89.5,202.5c-9.14-11.12-1-55.73,13.38-56s25.8,45.62,15.62,56C113.42,207.68,94.1,208.1,89.5,202.5Z" transform="translate(-30.74 -8.5)"/><rect id="TreeTrunk" class="cls-5" x="72.26" y="170.5" width="2" height="37"/><path id="PinkBunBun-2" data-name="PinkBunBun" class="cls-2" d="M598.88,174.25c-.31,0-.63-.14-1-.14-1,0-2.07,0-3.1,0-.5,0-1-.16-1.48-.22a8,8,0,0,0-1.09-.06c-.56,0-1.13,0-1.68.08s-1,.15-1.47.24-1.26.25-1.88.41a15.8,15.8,0,0,0-1.7.48c-.59.21-1.15.49-1.73.73a1.4,1.4,0,0,1-.33.15c-1.32.25-2.66.43-4,.78a10.5,10.5,0,0,1-2.63,0,1,1,0,0,1-.59-.36,15.83,15.83,0,0,0-3.95-2.8,5.63,5.63,0,0,0-.79-.29,6,6,0,0,0-.84-2.89,4.29,4.29,0,0,0-.43-.89,10.1,10.1,0,0,0-.81-.95c.32-.25.7-.5,1-.81a3.4,3.4,0,0,0,1.41-2.31,1.27,1.27,0,0,1,.17-.52,2.4,2.4,0,0,0-.27-2.6,2.21,2.21,0,0,0-2.5-.75A5.65,5.65,0,0,0,565.7,165a2.24,2.24,0,0,0,.07,1.86,3.52,3.52,0,0,1,.16.38c-1.36.47-2.69.92-4,1.4-.57.21-1.12.49-1.68.75-.87.4-1.73.84-2.62,1.21s-1.58.53-2.34.87a23.05,23.05,0,0,0-2.26,1.18c-1.25.73-2.48,1.47-3.7,2.23-.65.42-1.24.93-1.9,1.34A40.75,40.75,0,0,1,542.8,179c-1.31.6-2.51,1.41-3.8,2.05-.9.45-1.87.77-2.81,1.13-.52.19-1.05.32-1.58.48-.37.11-.84,0-1.06.44,0,0-.06,0-.08,0a14.78,14.78,0,0,0-3.11.38.79.79,0,0,1-.47-.12l.66-.49.83-.65c.32-.24.66-.46,1-.73s.45-.55.72-.75c1.06-.79,2.16-1.52,3.21-2.31.55-.42,1-.94,1.55-1.41s.85-.76,1.26-1.16c.65-.64,1.27-1.29,1.92-1.93.43-.42.91-.78,1.32-1.22a14,14,0,0,0,1.2-1.45c.77-1,1.53-2.07,2.27-3.12.48-.69.91-1.42,1.4-2.1s.95-1.15,1.38-1.75c.57-.81,1.1-1.65,1.64-2.48.29-.45.56-.92.84-1.37.62-1,1.25-2,1.88-3a1.16,1.16,0,0,0,0-1.42.34.34,0,0,1,0-.17c-.08-.56-.19-.65-.74-.59a4.74,4.74,0,0,0-2.1.56,3.22,3.22,0,0,1-1.1.23l-.26.1a3.76,3.76,0,0,1-.31.25c-.67.37-1.35.71-2,1.11-.93.56-1.84,1.15-2.74,1.76a13,13,0,0,0-1.33,1c-.49.42-.94.89-1.41,1.34-.67.63-1.36,1.23-2,1.88-.81.82-1.62,1.65-2.38,2.53s-1.28,1.63-1.89,2.48c-.42.59-.8,1.23-1.19,1.85-.78,1.24-1.56,2.48-2.32,3.74-.24.38-.39.83-.6,1.23-.45.87-1,1.72-1.37,2.61s-.76,1.85-1.11,2.79c-.26.72-.45,1.46-.72,2.17a2.24,2.24,0,0,1-.56,1,2,2,0,0,1-1,.21c-1.47.19-2.92.45-3.91,1.73-.07.1-.2.13-.3.21a3.14,3.14,0,0,0-1.3,1.65c-.13.48-.25,1-.34,1.44-.17,1-.32,1.94-.49,2.9a2.88,2.88,0,0,1-.15.66c-.27.73-.59,1.43-.82,2.16a2.3,2.3,0,0,0,2,2.82c1.45-.06,2.89-.22,4.33-.37a18.05,18.05,0,0,0,4.48-1.39c.83-.31,1.66-.64,2.5-.92a.64.64,0,0,1,.52.1,1.41,1.41,0,0,1,.25,1.49c-.38.63-.77,1.26-1.17,1.88s-.64,1-1,1.48c-.47.64-1,1.26-1.45,1.91s-1,1.46-1.55,2.2a8.92,8.92,0,0,1-.51.79c-.34.39-.75.71-1.06,1.12a13.78,13.78,0,0,1-2,2.05c-1.13,1-2.17,2-3.21,3.09-.46.47-.83,1-1.25,1.53s-1,1.18-1.46,1.79-.84,1.24-1.31,1.81a2.92,2.92,0,0,0-.63,1.64,2.85,2.85,0,0,0,.54,1.71,1.36,1.36,0,0,0,2.17.17c.42-.65.81-1.32,1.24-2a7.63,7.63,0,0,1,1.81-2.27,10,10,0,0,0,1.6-1.39,24.05,24.05,0,0,1,2.64-2.51,10.92,10.92,0,0,0,.85-.94c.69-.74,1.41-1.47,2.09-2.22s1.11-1.34,1.68-2,1.12-1.11,1.6-1.72,1-1.47,1.55-2.21c.22-.31.41-.64.64-.94.4-.53.82-1.07,1.25-1.58s.95-1.1,1.45-1.62a.44.44,0,0,1,.43.1,1,1,0,0,1,.11.61,5.57,5.57,0,0,1-1.22,2.54c-.42.71-.94,1.35-1.42,2-.33.46-.64.94-1,1.4s-.77.94-1.13,1.44-.6,1-.94,1.46-.69.89-1,1.33-.56.79-.86,1.16c-.48.58-1,1.12-1.46,1.7s-.7,1-1.11,1.43a10.22,10.22,0,0,0-1.9,2.48c-.34.68-.71,1.34-1,2s-.62,1.28-.9,1.94c-.14.34.31,1,.66,1a3.7,3.7,0,0,0,1.53-.46,14.39,14.39,0,0,0,1.78-1.63.32.32,0,0,0,.07-.2,1.67,1.67,0,0,1,.88-1.06s0,0,.1,0l0,.43.46-.61c.27-.36.52-.76.83-1.1,1-1.05,2-2.06,2.93-3.12.72-.79,1.42-1.61,2.07-2.46,1.58-2.08,3.15-4.17,4.68-6.29q1.4-1.92,2.64-3.95c.66-1.05,1.22-2.17,1.83-3.26.23-.4.41-.85.93-.95.07,0,.13-.12.19-.19.47-.57.93-1.14,1.42-1.69s.74-.76,1.11-1.15c.6-.62,1.17-1.29,1.8-1.88a15.68,15.68,0,0,1,1.45-1.09c.63-.49,1.3-.94,1.9-1.47s1.57-.64,2.23-1.27a15.77,15.77,0,0,1,2.38-1.61q1.88-1.2,3.77-2.37a4.9,4.9,0,0,1,.85-.44,8.81,8.81,0,0,0,1.25-.44,2.62,2.62,0,0,1,1.6-.23,1.34,1.34,0,0,0,.63,0c.54-.27,1,0,1.47.18a16.49,16.49,0,0,0,2,.72,10.72,10.72,0,0,0,1.88.21,19.16,19.16,0,0,1,2.41.12,9.27,9.27,0,0,0,2.53-.16,5.39,5.39,0,0,0,.8-.06c.67-.14,1.33-.28,2-.46s1.5-.41,2.23-.65c1.09-.37,2.17-.74,3.24-1.16s2.29-.93,3.42-1.42l3.8-1.67a4.11,4.11,0,0,1,1-.37c.71-.09,1.42-.1,2.13-.15a2.36,2.36,0,0,0,.44-.11c.71-.15,1.42-.34,2.14-.44,1-.13,1.95-.17,2.92-.31a9.13,9.13,0,0,0,1.21-.42c.71-.22.83-.39.7-1.12l-.11-.26A4.21,4.21,0,0,0,598.88,174.25Zm-72.21,15.08-1.08.44c.16.68.34,1.36.55,2,.1.31-.65.46-.81.49s-.83.09-.93-.23c-.18-.54-.32-1.09-.45-1.64-.42.15-.84.31-1.26.44-.17.06-.85.24-1-.07,0-.12.09-.26.16-.32a1.79,1.79,0,0,1,.56-.3c.44-.14.87-.3,1.3-.46-.16-.72-.29-1.44-.39-2.17,0-.33.61-.45.81-.49s.89-.09.94.23c.08.6.2,1.19.32,1.78l.56-.24c.25-.12.85-.33,1.11-.1S526.82,189.26,526.67,189.33Zm-8,28.06-.17-.12c.2-.31.4-.62.59-.93l.2.14Z" transform="translate(-30.74 -8.5)"/><ellipse id="Oval-2" data-name="Oval" class="cls-4" cx="572.01" cy="187.5" rx="10.75" ry="4"/><path id="Tree-2" data-name="Tree" class="cls-5" d="M588.5,184.3c-9.27-9.32.24-50.58,13.38-50.85,13.3-.27,23.74,40.32,15.62,50.85C613.07,190,593.61,189.44,588.5,184.3Z" transform="translate(-30.74 -8.5)"/><rect id="TreeTrunk-2" data-name="TreeTrunk" class="cls-5" x="571.26" y="157.5" width="2" height="30"/><ellipse id="Oval-3" data-name="Oval" class="cls-4" cx="661.26" cy="211.5" rx="10" ry="4"/><path id="Tree-3" data-name="Tree" class="cls-5" d="M677.5,206.5c-10.27-10.09-1-55.73,13.38-56s24.65,44.61,15.62,56C702,212.18,682.67,211.58,677.5,206.5Z" transform="translate(-30.74 -8.5)"/><rect id="TreeTrunk-3" data-name="TreeTrunk" class="cls-5" x="660.26" y="174.5" width="2" height="37"/><ellipse id="Oval-4" data-name="Oval" class="cls-4" cx="614.26" cy="243.5" rx="12" ry="4"/><path id="Tree-4" data-name="Tree" class="cls-5" d="M627.5,239.51c-10-12.52.35-61.69,16.38-62,16.22-.33,30.32,50.28,19.12,62C656.87,245.93,633.05,246.44,627.5,239.51Z" transform="translate(-30.74 -8.5)"/><rect id="TreeTrunk-4" data-name="TreeTrunk" class="cls-5" x="613.26" y="208.5" width="2" height="33"/><ellipse id="Oval-5" data-name="Oval" class="cls-1" cx="125.26" cy="187" rx="12" ry="5.5"/><path id="Tree-5" data-name="Tree" class="cls-5" d="M140.5,181.5c-11.38-13.48-2.87-68.7,14.77-69s29.85,56.48,17.23,69C166.82,187.13,145.66,187.61,140.5,181.5Z" transform="translate(-30.74 -8.5)"/><rect id="TreeTrunk-5" data-name="TreeTrunk" class="cls-5" x="124.26" y="149.5" width="2" height="37"/><ellipse id="Oval-6" data-name="Oval" class="cls-6" cx="318.26" cy="83" rx="12" ry="5.5"/><path id="Tree-6" data-name="Tree" class="cls-5" d="M333.5,77.5c-12.73-12.21-2.87-68.7,14.77-69s28.48,55.23,17.23,69C360.44,83.69,339.27,83,333.5,77.5Z" transform="translate(-30.74 -8.5)"/><rect id="TreeTrunk-6" data-name="TreeTrunk" class="cls-5" x="317.26" y="45.5" width="2" height="37"/><ellipse id="Oval-7" data-name="Oval" class="cls-6" cx="461.51" cy="96.5" rx="10.25" ry="4"/><path id="Tree-7" data-name="Tree" class="cls-5" d="M477.5,93.3c-9.27-9.32.24-50.58,13.38-50.85,13.3-.27,23.74,40.32,15.62,50.85C502.07,99,482.61,98.44,477.5,93.3Z" transform="translate(-30.74 -8.5)"/><rect id="TreeTrunk-7" data-name="TreeTrunk" class="cls-5" x="460.26" y="66.5" width="2" height="30"/></svg>