<?xml version="1.0" encoding="utf-8"?>
<!-- Generator: Adobe Illustrator 23.1.1, SVG Export Plug-In . SVG Version: 6.00 Build 0)  -->
<svg version="1.1" id="Layer_1" xmlns="http://www.w3.org/2000/svg" xmlns:xlink="http://www.w3.org/1999/xlink" x="0px" y="0px"
	 viewBox="0 0 598 357" style="enable-background:new 0 0 598 357;" xml:space="preserve">
<style type="text/css">
	.st0{fill:#81929B;}
	.st1{fill:#52616B;}
	.st2{fill:#111111;}
</style>
<polygon class="st0" points="364.5,182.4 367.2,177.4 364.5,172.3 370.2,173.3 374.2,169.3 375,174.9 380.1,177.5 374.9,180 
	374.1,185.6 370.1,181.5 "/>
<path class="st1" d="M328,193.2c-12.2,0-22.1-9.9-22.1-22.1c0-9.7,6.3-18,15-20.9c-1-0.1-2-0.2-3-0.2c-15.5,0-28,12.5-28,28
	s12.5,28,28,28c13,0,23.9-8.8,27.1-20.8C340.9,190.1,334.8,193.2,328,193.2z"/>
<polygon class="st2" points="258.9,168 258.7,162.9 254.3,160.3 259.1,158.5 260.2,153.6 263.4,157.5 268.5,157.1 265.7,161.3 
	267.7,166 262.8,164.7 "/>
<polygon class="st0" points="217.9,201 218.8,196.8 215.9,193.7 220.2,193.3 222.2,189.6 223.9,193.5 228.1,194.3 224.9,197.1 
	225.4,201.3 221.8,199.2 "/>
</svg>
