<svg id="Layer_3" data-name="Layer 3" xmlns="http://www.w3.org/2000/svg" viewBox="0 0 160.36 47.29"><defs><style>.cls-1{fill:#fff;}</style></defs><title>clouds</title><path class="cls-1" d="M10.82,26.57c1.13-3.13,3.24-5.17,6.45-5.19a4.5,4.5,0,0,0,3.88-2.09,9.64,9.64,0,0,1,10.58-2.73,9.81,9.81,0,0,1,6.57,8.86c0,.31,0,.61.05,1l1.28.17a4.52,4.52,0,0,1,0,9,11.32,11.32,0,0,1-1.43.07q-13.84,0-27.69,0c-2.16,0-3.85-.73-4.76-2.76a4.28,4.28,0,0,1,.78-4.84A4.75,4.75,0,0,1,10.82,26.57Z" transform="translate(-5.29 -15.99)"/><path class="cls-1" d="M94.48,47.12c1-2.79,2.89-4.61,5.75-4.63a4,4,0,0,0,3.45-1.86,8.6,8.6,0,0,1,9.43-2.44,8.74,8.74,0,0,1,5.85,7.9c0,.27,0,.54.05.89l1.14.15a4,4,0,0,1,0,8,9.07,9.07,0,0,1-1.28.06c-8.23,0-16.45,0-24.68,0a4.17,4.17,0,0,1-4.23-2.46,3.83,3.83,0,0,1,.69-4.32A4.21,4.21,0,0,1,94.48,47.12Z" transform="translate(-5.29 -15.99)"/><path class="cls-1" d="M131,28c1.19-3.31,3.42-5.47,6.81-5.48,2.05,0,3-.85,4.1-2.22a10.2,10.2,0,0,1,11.18-2.88,10.37,10.37,0,0,1,7,9.37c0,.32,0,.63,0,1.05l1.36.18a4.78,4.78,0,0,1,0,9.49,12.79,12.79,0,0,1-1.52.07q-14.62,0-29.26,0c-2.28,0-4.07-.77-5-2.91a4.55,4.55,0,0,1,.82-5.12A5,5,0,0,1,131,28Z" transform="translate(-5.29 -15.99)"/><path class="cls-1" d="M44.69,59.17a3.09,3.09,0,0,1,2.92-2.35,2.06,2.06,0,0,0,1.76-1,4.36,4.36,0,0,1,4.79-1.24,4.45,4.45,0,0,1,3,4c0,.13,0,.27,0,.45l.58.07a2,2,0,0,1,0,4.07,4.64,4.64,0,0,1-.65,0H44.54A2.13,2.13,0,0,1,42.38,62a2,2,0,0,1,.36-2.2A2.13,2.13,0,0,1,44.69,59.17Z" transform="translate(-5.29 -15.99)"/></svg>