<svg id="Layer_1" data-name="Layer 1" xmlns="http://www.w3.org/2000/svg" viewBox="0 0 164.13 56"><defs><style>.cls-1{fill:#81929b;}.cls-2{fill:#52616b;}.cls-3{fill:#111;}</style></defs><title>moon-stars</title><polygon class="cls-1" points="148.53 32.44 151.23 27.41 148.61 22.33 154.24 23.34 158.26 19.28 159.03 24.94 164.13 27.51 158.99 30 158.12 35.65 154.17 31.52 148.53 32.44"/><path class="cls-2" d="M116,48.16a22.08,22.08,0,0,1-7.07-43,29.71,29.71,0,0,0-3-.16A28,28,0,1,0,133,40.19,22,22,0,0,1,116,48.16Z" transform="translate(-3.93 -5)"/><polygon class="cls-3" points="42.99 18 42.72 12.95 38.41 10.31 43.13 8.49 44.3 3.57 47.49 7.5 52.53 7.1 49.78 11.35 51.72 16.02 46.84 14.71 42.99 18"/><polygon class="cls-1" points="1.99 51 2.9 46.85 0 43.74 4.23 43.33 6.29 39.6 7.99 43.5 12.17 44.31 8.99 47.13 9.51 51.35 5.84 49.2 1.99 51"/></svg>