<svg id="Layer_1" data-name="Layer 1" xmlns="http://www.w3.org/2000/svg" viewBox="0 0 131.89 49.87"><defs><style>.cls-1{fill:#fff;}</style></defs><title>stars-white</title><polygon class="cls-1" points="85.64 46.66 88.34 41.63 85.72 36.55 91.34 37.56 95.36 33.51 96.14 39.16 101.24 41.73 96.1 44.22 95.23 49.87 91.28 45.74 85.64 46.66"/><polygon class="cls-1" points="55.14 26.06 54.65 16.94 46.86 12.17 55.38 8.88 57.51 0 63.27 7.09 72.38 6.37 67.41 14.04 70.91 22.48 62.08 20.12 55.14 26.06"/><polygon class="cls-1" points="3.69 39.02 4.9 32.24 0 27.39 6.82 26.45 9.91 20.29 12.92 26.49 19.73 27.53 14.76 32.3 15.88 39.1 9.81 35.85 3.69 39.02"/><polygon class="cls-1" points="124.4 23.6 125.08 20.54 122.94 18.25 126.05 17.95 127.57 15.21 128.82 18.08 131.89 18.67 129.55 20.75 129.94 23.85 127.24 22.27 124.4 23.6"/></svg>