<svg id="Layer_1" data-name="Layer 1" xmlns="http://www.w3.org/2000/svg" viewBox="0 0 148.75 38.35"><defs><style>.cls-1{fill:#81929b;}.cls-2{fill:#111;}.cls-3{fill:#69787f;}</style></defs><title>stars</title><polygon class="cls-1" points="99.64 13.16 102.34 8.13 99.72 3.05 105.35 4.06 109.37 0 110.14 5.66 115.24 8.23 110.1 10.72 109.23 16.37 105.28 12.24 99.64 13.16"/><polygon class="cls-2" points="44.84 38.35 44.48 31.63 38.74 28.12 45.02 25.7 46.59 19.16 50.82 24.38 57.53 23.85 53.88 29.49 56.45 35.7 49.95 33.97 44.84 38.35"/><polygon class="cls-1" points="2 37.38 2.96 33.13 0 29.92 4.34 29.52 6.47 25.72 8.2 29.73 12.47 30.58 9.19 33.45 9.71 37.79 5.96 35.56 2 37.38"/><polygon class="cls-3" points="141.26 37.69 141.93 34.64 139.8 32.35 142.91 32.05 144.42 29.31 145.68 32.17 148.75 32.77 146.41 34.84 146.79 37.95 144.09 36.37 141.26 37.69"/></svg>